HIERARCHY
ROOT Pelvis
{
	OFFSET 0.000000 0.000000 0.000000
	CHANNELS 6 Xposition Yposition Zposition Xrotation Yrotation Zrotation
	JOINT LeftUpLeg_virtual
	{
		OFFSET 0.000000 0.000000 0.000000
		CHANNELS 3 Xrotation Yrotation Zrotation
		JOINT LeftUpLeg
		{
			OFFSET 18.735201 -5.666702 -4.541200
			CHANNELS 3 Xrotation Yrotation Zrotation
			JOINT LeftLeg
			{
				OFFSET -0.021200 -31.938179 0.493100
				CHANNELS 3 Xrotation Yrotation Zrotation
				JOINT LeftFoot
				{
					OFFSET 0.021200 -31.938179 -4.336299
					CHANNELS 3 Xrotation Yrotation Zrotation
					JOINT LeftToeBase
					{
						OFFSET 0.943001 -26.722000 15.023500
						CHANNELS 3 Xrotation Yrotation Zrotation
						End Site
						{
							OFFSET 0 0 0
						}
					}
				}
			}
		}
	}
	JOINT RightUpLeg_virtual
	{
		OFFSET 0.000000 0.000000 0.000000
		CHANNELS 3 Xrotation Yrotation Zrotation
		JOINT RightUpLeg
		{
			OFFSET -18.735201 -5.666702 -4.541200
			CHANNELS 3 Xrotation Yrotation Zrotation
			JOINT RightLeg
			{
				OFFSET 0.018946 -31.938133 0.493100
				CHANNELS 3 Xrotation Yrotation Zrotation
				JOINT RightFoot
				{
					OFFSET -0.018946 -31.938126 -4.336299
					CHANNELS 3 Xrotation Yrotation Zrotation
					JOINT RightToeBase
					{
						OFFSET -0.943001 -26.722004 15.023500
						CHANNELS 3 Xrotation Yrotation Zrotation
						End Site
						{
							OFFSET 0 0 0
						}
					}
				}
			}
		}
	}
	JOINT Hips_virtual
	{
		OFFSET 0.000000 0.000000 0.000000
		CHANNELS 3 Xrotation Yrotation Zrotation
		JOINT Hips
		{
			OFFSET -0.000000 -0.000000 -0.000000
			CHANNELS 3 Xrotation Yrotation Zrotation
			JOINT Spine
			{
				OFFSET 0.000000 10.199997 -0.299500
				CHANNELS 3 Xrotation Yrotation Zrotation
				JOINT Spine1
				{
					OFFSET 0.000000 11.900002 -1.516600
					CHANNELS 3 Xrotation Yrotation Zrotation
					JOINT Spine2
					{
						OFFSET 0.000000 13.600006 -2.842500
						CHANNELS 3 Xrotation Yrotation Zrotation
						JOINT Neck_virtual
						{
							OFFSET 0.000000 0.000000 0.000000
							CHANNELS 3 Xrotation Yrotation Zrotation
							JOINT Neck
							{
								OFFSET 0.000000 9.624100 -2.890100
								CHANNELS 3 Xrotation Yrotation Zrotation
								JOINT Head
								{
									OFFSET 0.000000 14.068802 -1.351900
									CHANNELS 3 Xrotation Yrotation Zrotation
									End Site
									{
										OFFSET 0 0 0
									}
								}
							}
						}
						JOINT LeftShoulder_virtual
						{
							OFFSET 0.000000 0.000000 0.000000
							CHANNELS 3 Xrotation Yrotation Zrotation
							JOINT LeftShoulder
							{
								OFFSET 15.263000 10.923401 -0.547700
								CHANNELS 3 Xrotation Yrotation Zrotation
								JOINT LeftArm
								{
									OFFSET 25.438599 -2.830597 -13.032500
									CHANNELS 3 Xrotation Yrotation Zrotation
									JOINT LeftForeArm
									{
										OFFSET 29.960503 0.000000 0.000000
										CHANNELS 3 Xrotation Yrotation Zrotation
										JOINT LeftHand
										{
											OFFSET 27.849251 0.000000 0.000000
											CHANNELS 3 Xrotation Yrotation Zrotation
											End Site
											{
												OFFSET 0 0 0
											}
										}
									}
								}
							}
						}
						JOINT RightShoulder_virtual
						{
							OFFSET 0.000000 0.000000 0.000000
							CHANNELS 3 Xrotation Yrotation Zrotation
							JOINT RightShoulder
							{
								OFFSET -15.263000 10.923401 -0.547700
								CHANNELS 3 Xrotation Yrotation Zrotation
								JOINT RightArm
								{
									OFFSET -25.438599 -2.830597 -13.032500
									CHANNELS 3 Xrotation Yrotation Zrotation
									JOINT RightForeArm
									{
										OFFSET -29.960503 0.000000 0.000000
										CHANNELS 3 Xrotation Yrotation Zrotation
										JOINT RightHand
										{
											OFFSET -27.849251 0.000000 0.000000
											CHANNELS 3 Xrotation Yrotation Zrotation
											End Site
											{
												OFFSET 0 0 0
											}
										}
									}
								}
							}
						}
					}
				}
			}
		}
	}
}
MOTION
Frames: 4
Frame Time: 0.03333333
-4.480363 93.016502 7.684366 0.000000 0.000000 0.000000 -120.536050 -86.887683 -120.360187 -15.703845 14.483746 15.453749 25.467878 -8.130114 4.688584 -6.585522 0.074297 -21.821256 0.000000 0.000000 0.000000 -107.831605 -87.043350 -107.334408 -16.744422 -12.524794 -17.307933 28.374713 -2.774995 -0.284522 -0.724489 2.202014 16.547791 0.000000 0.000000 0.000000 -81.465196 -87.745186 -81.170672 -0.644650 0.061070 0.063053 8.668722 -0.407522 0.330641 -1.772209 -1.650407 2.808265 0.000000 0.000000 0.000000 -0.942171 -0.471503 1.492779 -0.403082 3.237854 -0.481994 0.000000 0.000000 0.000000 -1.205416 -0.806240 2.354168 -1.849834 -4.881090 -1.211607 21.416152 -62.747534 -60.494009 3.383440 -46.176409 11.655370 0.000000 0.000000 0.000000 -1.557885 -0.359331 1.641466 18.896847 10.307490 9.088239 12.568013 14.947376 59.701236 -2.185178 55.170201 5.260748 0.000000 0.000000 0.000000 
-4.564004 92.963486 7.585884 0.000000 0.000000 0.000000 -116.694451 -87.018823 -116.538450 -15.797235 14.606877 15.436195 25.343273 -8.109977 4.730383 -6.446768 0.282497 -21.829735 0.000000 0.000000 0.000000 -104.308832 -87.162202 -103.914327 -16.726932 -12.512703 -17.073135 28.315917 -2.592780 -0.175716 -1.595150 2.158337 16.800536 0.000000 0.000000 0.000000 -78.832261 -87.750405 -78.590192 -0.643962 0.058720 0.064482 8.755637 -0.384509 0.324865 -1.896103 -1.686464 2.953929 0.000000 0.000000 0.000000 -0.712937 -0.504485 1.551063 -0.383372 3.230523 -0.527879 0.000000 0.000000 0.000000 -0.933151 -0.836444 2.352972 -1.977328 -4.645781 -1.299154 21.318306 -62.491709 -60.674906 3.593967 -46.358772 11.728613 0.000000 0.000000 0.000000 -1.453412 -0.342691 1.790936 18.923078 10.009574 8.913008 12.542993 14.643987 59.798825 -2.322400 55.586866 5.328395 0.000000 0.000000 0.000000 
-4.584676 92.880287 7.469009 0.000000 0.000000 0.000000 -109.769015 -87.247853 -109.595863 -16.325339 14.976334 15.320121 25.480378 -8.053647 4.978769 -6.132448 0.470910 -21.394553 0.000000 0.000000 0.000000 -97.883222 -87.331926 -97.597857 -16.645825 -12.466145 -16.946227 28.437411 -2.198045 -0.151275 -2.760765 2.214593 17.257035 0.000000 0.000000 0.000000 -75.667062 -87.781769 -75.468263 -0.660275 0.051797 0.062987 8.745314 -0.521505 0.198510 -1.930859 -1.825963 3.227095 0.000000 0.000000 0.000000 -0.409176 -0.596159 1.713564 -0.352899 3.203547 -0.547554 0.000000 0.000000 0.000000 -0.658323 -0.930705 2.370694 -2.049032 -4.396889 -1.490524 21.420762 -62.117545 -60.781355 3.889910 -47.209786 11.717143 0.000000 0.000000 0.000000 -1.280689 -0.385287 2.015868 19.079485 9.388072 8.351663 12.053615 14.770860 60.735114 -2.343131 56.058853 5.129211 0.000000 0.000000 0.000000 
-4.531448 92.791389 7.336279 0.000000 0.000000 0.000000 -101.267677 -87.467580 -101.031714 -17.310365 15.458026 15.180046 26.070532 -7.979279 5.369880 -5.686954 0.482223 -20.774847 0.000000 0.000000 0.000000 -90.838053 -87.476248 -90.600438 -16.617184 -12.319849 -16.884726 28.751514 -1.687562 -0.336240 -3.975620 2.224989 17.611515 0.000000 0.000000 0.000000 -73.051578 -87.855706 -72.864882 -0.678083 0.045924 0.058973 8.661284 -0.778562 -0.088566 -1.908695 -2.024284 3.589615 0.000000 0.000000 0.000000 -0.126684 -0.704435 1.950090 -0.307284 3.167121 -0.539607 0.000000 0.000000 0.000000 -0.454583 -1.045661 2.395492 -2.072908 -4.216502 -1.755709 22.047953 -61.840396 -60.347768 4.151870 -48.254221 11.528082 0.000000 0.000000 0.000000 -1.134896 -0.454406 2.273443 19.340027 8.714923 7.592429 11.326609 15.251189 61.946899 -2.261622 56.620106 4.761307 0.000000 0.000000 0.000000 
